<svg xmlns="http://www.w3.org/2000/svg" viewBox="0 0 1024 1024"><defs><style>.cls-1{fill:#571845;}.cls-2{fill:#fff;}</style></defs><title>Asset 3</title><g id="Layer_2" data-name="Layer 2"><g id="Layer_4" data-name="Layer 4"><circle class="cls-1" cx="512" cy="512" r="512"/><path class="cls-2" d="M752,337H272a60.18,60.18,0,0,0-60,60V627a60.18,60.18,0,0,0,60,60H752a60.18,60.18,0,0,0,60-60V397A60.18,60.18,0,0,0,752,337ZM478.31,439.63h27v45h-27ZM387,562.5a12,12,0,0,1-12,12H274a12,12,0,0,1-12-12v-101a12,12,0,0,1,12-12H375a12,12,0,0,1,12,12Zm118.31,22.25h-27v-45h27Zm.19-50.25h-27v-45h27Zm39.9,49.88h-27v-45h27Zm.2-50.25h-27v-45h27Zm0-49.5h-27v-45h27ZM762,562.25a12,12,0,0,1-12,12H649a12,12,0,0,1-12-12v-101a12,12,0,0,1,12-12H750a12,12,0,0,1,12,12Z"/><path class="cls-2" d="M356.91,481.44V543.8a5.41,5.41,0,0,1-8.11,4.68l-54-31.18a5.4,5.4,0,0,1,0-9.36l54-31.18A5.41,5.41,0,0,1,356.91,481.44Z"/><path class="cls-2" d="M667.09,543.8V481.44a5.41,5.41,0,0,1,8.11-4.68l54,31.18a5.4,5.4,0,0,1,0,9.36l-54,31.18A5.41,5.41,0,0,1,667.09,543.8Z"/><path class="cls-2" d="M497.81,562.25a6,6,0,1,1-6-6A6,6,0,0,1,497.81,562.25Z"/><path class="cls-2" d="M538.1,512a6,6,0,1,1-6-6A6,6,0,0,1,538.1,512Z"/><path class="cls-2" d="M498,465a6,6,0,1,1-6-6A6,6,0,0,1,498,465Z"/></g></g></svg>