<svg xmlns="http://www.w3.org/2000/svg" viewBox="0 0 600 350"><defs><style>.cls-1{fill:#fff;}</style></defs><title>Asset 7</title><g id="Layer_2" data-name="Layer 2"><g id="Layer_4" data-name="Layer 4"><path class="cls-1" d="M540,0H60A60.18,60.18,0,0,0,0,60V290a60.18,60.18,0,0,0,60,60H540a60.18,60.18,0,0,0,60-60V60A60.18,60.18,0,0,0,540,0ZM266.31,102.63h27v45h-27ZM175,225.5a12,12,0,0,1-12,12H62a12,12,0,0,1-12-12v-101a12,12,0,0,1,12-12H163a12,12,0,0,1,12,12Zm118.31,22.25h-27v-45h27Zm.19-50.25h-27v-45h27Zm39.9,49.88h-27v-45h27Zm.2-50.25h-27v-45h27Zm0-49.5h-27v-45h27ZM550,225.25a12,12,0,0,1-12,12H437a12,12,0,0,1-12-12v-101a12,12,0,0,1,12-12H538a12,12,0,0,1,12,12Z"/><path class="cls-1" d="M144.91,144.44V206.8a5.41,5.41,0,0,1-8.11,4.68l-54-31.18a5.4,5.4,0,0,1,0-9.36l54-31.18A5.41,5.41,0,0,1,144.91,144.44Z"/><path class="cls-1" d="M455.09,206.8V144.44a5.41,5.41,0,0,1,8.11-4.68l54,31.18a5.4,5.4,0,0,1,0,9.36l-54,31.18A5.41,5.41,0,0,1,455.09,206.8Z"/><path class="cls-1" d="M285.81,225.25a6,6,0,1,1-6-6A6,6,0,0,1,285.81,225.25Z"/><path class="cls-1" d="M326.1,175a6,6,0,1,1-6-6A6,6,0,0,1,326.1,175Z"/><path class="cls-1" d="M286,128a6,6,0,1,1-6-6A6,6,0,0,1,286,128Z"/></g></g></svg>