<svg xmlns="http://www.w3.org/2000/svg" viewBox="0 0 1024 1024"><defs><style>.cls-1{fill:none;}.cls-2{fill:#f2f2f2;}.cls-3{fill:#e6e7e8;}</style></defs><title>Asset 2</title><g id="Layer_2" data-name="Layer 2"><g id="Layer_1-2" data-name="Layer 1"><rect class="cls-1" width="1024" height="1024"/><path class="cls-2" d="M543,108.47H260.78a117.06,117.06,0,0,1,7.84,42.28H500.7a63.94,63.94,0,0,1,63.75,63.75V500.7a63.94,63.94,0,0,1-63.75,63.75H214.5a63.94,63.94,0,0,1-63.75-63.75V268.37a117.28,117.28,0,0,1-42.28-7.93V543a63.94,63.94,0,0,0,63.75,63.75H543A63.94,63.94,0,0,0,606.73,543V172.22A63.94,63.94,0,0,0,543,108.47Z" transform="translate(154.4 154.4)"/><path class="cls-2" d="M431.6,314.6v193h75v-193Zm66,185h-59v-176h59Z" transform="translate(154.4 154.4)"/><circle class="cls-3" cx="529.03" cy="624.98" r="14.15"/><circle class="cls-3" cx="529.03" cy="565.66" r="14.15"/><circle class="cls-3" cx="623.13" cy="565.66" r="14.15"/><circle class="cls-3" cx="529.03" cy="565.66" r="14.15"/><circle class="cls-3" cx="529.03" cy="506.33" r="14.15"/><path class="cls-2" d="M336.6,314.6v193h75v-193Zm66,185h-56v-176h56Z" transform="translate(154.4 154.4)"/><path class="cls-2" d="M151,65.25a85.5,85.5,0,1,0,85.5,85.5A85.5,85.5,0,0,0,151,65.25Z" transform="translate(154.4 154.4)"/><path class="cls-2" d="M150.75,0A150.75,150.75,0,1,0,301.5,150.75,150.76,150.76,0,0,0,150.75,0ZM151,268.37A117.62,117.62,0,1,1,268.62,150.75,117.62,117.62,0,0,1,151,268.37Z" transform="translate(154.4 154.4)"/></g></g></svg>