<svg xmlns="http://www.w3.org/2000/svg" viewBox="0 0 1024 1024"><defs><style>.cls-1{fill:#8c6239;}.cls-2{fill:#fff;}.cls-3,.cls-9{fill:#c70039;}.cls-4{fill:#ff5733;}.cls-5{fill:#ffc300;}.cls-6{fill:#282422;}.cls-7,.cls-8{fill:none;stroke:#191919;}.cls-7,.cls-8,.cls-9{stroke-miterlimit:10;}.cls-7{stroke-width:1.5px;}.cls-8{stroke-width:3px;}.cls-9{stroke:#c70039;stroke-width:6px;}</style></defs><title>Asset 8</title><g id="Layer_2" data-name="Layer 2"><g id="Layer_2-2" data-name="Layer 2"><polygon class="cls-1" points="856.07 873 184.1 873 317.38 390.65 695.43 390.65 856.07 873"/><polygon class="cls-2" points="432.17 513.22 571.43 496.11 611.35 712 470.51 728.48 432.17 513.22"/><path class="cls-3" d="M570.61,497.21l39.56,213.92L471.33,727.38l-38-213.29,137.28-16.87m1.62-2.21L431,512.36l38.69,217.22,142.84-16.71L572.24,495Z"/><path class="cls-4" d="M512,0C229.23,0,0,229.23,0,512s229.23,512,512,512,512-229.23,512-512S794.77,0,512,0ZM681.44,785.08,423.19,820.86a34.87,34.87,0,0,1-39.33-29.76L312.8,278.25a34.88,34.88,0,0,1,29.76-39.33l258.25-35.78a34.87,34.87,0,0,1,39.33,29.76L711.2,745.75A34.88,34.88,0,0,1,681.44,785.08Z"/><polygon class="cls-5" points="183.72 165.48 293.23 213.83 382.13 113.72 325.79 231.32 433.89 312.13 304.65 263.29 235.48 363.89 275.81 246.35 183.72 165.48"/><polygon class="cls-4" points="738.69 396.98 312.47 396.98 312.47 231.66 738.69 160.73 738.69 396.98"/><rect class="cls-6" x="496.87" y="789.11" width="111.73" height="4.67" rx="2.33" ry="2.33" transform="translate(-99.14 79.44) rotate(-7.55)"/><path d="M738.36,781.48,656.57,191.13a34.87,34.87,0,0,0-39.33-29.76L315.4,203.19a34.88,34.88,0,0,0-29.76,39.33l81.79,590.35a34.87,34.87,0,0,0,39.33,29.76L708.6,820.81A34.88,34.88,0,0,0,738.36,781.48Zm-56.92,3.6L423.19,820.86a34.87,34.87,0,0,1-39.33-29.76L312.8,278.25a34.88,34.88,0,0,1,29.76-39.33l258.25-35.78a34.87,34.87,0,0,1,39.33,29.76L711.2,745.75A34.88,34.88,0,0,1,681.44,785.08Z"/><line class="cls-7" x1="518.62" y1="703.54" x2="540.86" y2="700.63"/><line class="cls-7" x1="566.05" y1="704.56" x2="588.29" y2="701.65"/><line class="cls-7" x1="490.71" y1="714.4" x2="512.95" y2="711.5"/><line class="cls-7" x1="520.04" y1="710.57" x2="561.35" y2="705.17"/><line class="cls-7" x1="489.35" y1="707.36" x2="511.59" y2="704.46"/><line class="cls-7" x1="547.03" y1="699.83" x2="588.35" y2="694.43"/><line class="cls-7" x1="564.19" y1="690.28" x2="586.43" y2="687.37"/><line class="cls-7" x1="534.92" y1="694.1" x2="557.16" y2="691.2"/><line class="cls-7" x1="488.13" y1="700.22" x2="529.44" y2="694.82"/><line class="cls-7" x1="513.69" y1="675.07" x2="535.93" y2="672.17"/><line class="cls-7" x1="561.12" y1="676.09" x2="583.36" y2="673.19"/><line class="cls-7" x1="485.77" y1="685.94" x2="508.01" y2="683.03"/><line class="cls-7" x1="515.1" y1="682.11" x2="556.42" y2="676.71"/><line class="cls-7" x1="484.42" y1="678.9" x2="506.66" y2="675.99"/><line class="cls-7" x1="542.1" y1="671.36" x2="583.41" y2="665.96"/><line class="cls-7" x1="559.25" y1="661.82" x2="581.49" y2="658.91"/><line class="cls-7" x1="529.99" y1="665.64" x2="552.23" y2="662.73"/><line class="cls-7" x1="483.19" y1="671.75" x2="524.5" y2="666.36"/><line class="cls-8" x1="479.52" y1="664.94" x2="556.93" y2="654.83"/><line class="cls-7" x1="503.57" y1="634.21" x2="525.81" y2="631.31"/><line class="cls-7" x1="551" y1="635.23" x2="573.24" y2="632.33"/><line class="cls-7" x1="475.66" y1="645.08" x2="497.9" y2="642.17"/><line class="cls-7" x1="504.99" y1="641.25" x2="546.3" y2="635.85"/><line class="cls-7" x1="474.3" y1="638.04" x2="496.54" y2="635.13"/><line class="cls-7" x1="531.98" y1="630.5" x2="573.3" y2="625.11"/><line class="cls-7" x1="549.14" y1="620.96" x2="571.38" y2="618.05"/><line class="cls-7" x1="519.87" y1="624.78" x2="542.11" y2="621.87"/><line class="cls-7" x1="473.08" y1="630.89" x2="514.39" y2="625.5"/><line class="cls-7" x1="498.64" y1="605.75" x2="520.88" y2="602.84"/><line class="cls-7" x1="546.07" y1="606.77" x2="568.31" y2="603.87"/><line class="cls-7" x1="470.72" y1="616.61" x2="492.96" y2="613.71"/><line class="cls-7" x1="500.05" y1="612.78" x2="541.37" y2="607.38"/><line class="cls-7" x1="469.37" y1="609.57" x2="491.61" y2="606.67"/><line class="cls-7" x1="527.05" y1="602.04" x2="568.36" y2="596.64"/><line class="cls-7" x1="544.2" y1="592.49" x2="566.44" y2="589.59"/><line class="cls-7" x1="514.93" y1="596.32" x2="537.17" y2="593.41"/><line class="cls-7" x1="468.14" y1="602.43" x2="509.45" y2="597.03"/><line class="cls-8" x1="464.47" y1="595.62" x2="541.88" y2="585.51"/><line class="cls-7" x1="488.73" y1="565.01" x2="510.97" y2="562.11"/><line class="cls-7" x1="536.16" y1="566.03" x2="558.4" y2="563.13"/><line class="cls-7" x1="460.82" y1="575.87" x2="483.06" y2="572.97"/><line class="cls-7" x1="490.15" y1="572.04" x2="531.46" y2="566.65"/><line class="cls-7" x1="459.46" y1="568.83" x2="481.7" y2="565.93"/><line class="cls-7" x1="517.14" y1="561.3" x2="558.46" y2="555.9"/><line class="cls-7" x1="534.3" y1="551.75" x2="556.54" y2="548.85"/><line class="cls-7" x1="505.03" y1="555.58" x2="527.27" y2="552.67"/><line class="cls-7" x1="458.24" y1="561.69" x2="499.55" y2="556.29"/><line class="cls-7" x1="483.8" y1="536.55" x2="506.04" y2="533.64"/><line class="cls-7" x1="531.23" y1="537.57" x2="553.47" y2="534.66"/><line class="cls-7" x1="455.88" y1="547.41" x2="478.12" y2="544.5"/><line class="cls-7" x1="485.21" y1="543.58" x2="526.53" y2="538.18"/><line class="cls-7" x1="454.53" y1="540.37" x2="476.77" y2="537.46"/><line class="cls-7" x1="512.21" y1="532.84" x2="553.52" y2="527.44"/><line class="cls-7" x1="529.36" y1="523.29" x2="551.6" y2="520.38"/><line class="cls-7" x1="500.1" y1="527.11" x2="522.34" y2="524.21"/><line class="cls-7" x1="453.3" y1="533.23" x2="494.62" y2="527.83"/><line class="cls-8" x1="449.63" y1="526.42" x2="527.04" y2="516.3"/><line class="cls-9" x1="621.26" y1="719.89" x2="612.53" y2="679.41"/><line class="cls-9" x1="583.75" y1="725.29" x2="624.39" y2="720.41"/><line class="cls-9" x1="576.36" y1="486.2" x2="584.67" y2="525.67"/><line class="cls-9" x1="579.29" y1="488.09" x2="538.74" y2="493.7"/><line class="cls-9" x1="423.16" y1="508.42" x2="463.75" y2="503.11"/><line class="cls-9" x1="465.39" y1="739.35" x2="505.98" y2="734.04"/><line class="cls-9" x1="424.98" y1="505.45" x2="431.48" y2="545.87"/><line class="cls-9" x1="458.5" y1="702.08" x2="465" y2="742.5"/></g></g></svg>