<svg xmlns="http://www.w3.org/2000/svg" viewBox="0 0 1024 1024"><defs><style>.cls-1{fill:#c70039;}.cls-2{fill:none;}.cls-3{fill:#f2f2f2;}.cls-4{fill:#e6e7e8;}</style></defs><title>Asset 1</title><g id="Layer_2" data-name="Layer 2"><g id="Layer_1-2" data-name="Layer 1"><circle class="cls-1" cx="512" cy="512" r="512"/><rect class="cls-2" width="1024" height="1024"/><path class="cls-3" d="M697.38,262.87H415.18A117.06,117.06,0,0,1,423,305.15H655.1a63.94,63.94,0,0,1,63.75,63.75V655.1a63.94,63.94,0,0,1-63.75,63.75H368.9a63.94,63.94,0,0,1-63.75-63.75V422.77a117.28,117.28,0,0,1-42.28-7.93V697.38a63.94,63.94,0,0,0,63.75,63.75H697.38a63.94,63.94,0,0,0,63.75-63.75V326.62A63.94,63.94,0,0,0,697.38,262.87Z"/><path class="cls-3" d="M586,469V662h75V469Zm66,185H593V478h59Z"/><circle class="cls-4" cx="529.03" cy="624.98" r="14.15"/><circle class="cls-4" cx="529.03" cy="565.66" r="14.15"/><circle class="cls-4" cx="623.13" cy="565.66" r="14.15"/><circle class="cls-4" cx="529.03" cy="565.66" r="14.15"/><circle class="cls-4" cx="529.03" cy="506.33" r="14.15"/><path class="cls-3" d="M491,469V662h75V469Zm66,185H501V478h56Z"/><path class="cls-3" d="M305.4,219.65a85.5,85.5,0,1,0,85.5,85.5A85.5,85.5,0,0,0,305.4,219.65Z"/><path class="cls-3" d="M305.15,154.4A150.75,150.75,0,1,0,455.9,305.15,150.76,150.76,0,0,0,305.15,154.4Zm.25,268.37A117.62,117.62,0,1,1,423,305.15,117.62,117.62,0,0,1,305.4,422.77Z"/></g></g></svg>