<svg xmlns="http://www.w3.org/2000/svg" viewBox="0 0 3270.31 2100"><defs><style>.cls-1{fill:#900c3e;}.cls-2{fill:#fff;}.cls-3{fill:#571845;}.cls-4{fill:#ffc300;}.cls-12,.cls-5{fill:#c70039;}.cls-10,.cls-11,.cls-13,.cls-6{fill:none;}.cls-12,.cls-6{stroke:#c70039;}.cls-10,.cls-11,.cls-12,.cls-6{stroke-miterlimit:10;}.cls-6{stroke-width:15px;}.cls-7{fill:#8c6239;}.cls-8{fill:#ff5733;}.cls-9{fill:#282422;}.cls-10,.cls-11{stroke:#191919;}.cls-10{stroke-width:1.5px;}.cls-11{stroke-width:3px;}.cls-12{stroke-width:6px;}.cls-14{fill:#f2f2f2;}.cls-15{fill:#e6e7e8;}</style></defs><title>screen-1</title><g id="Layer_5" data-name="Layer 5"><circle class="cls-1" cx="1619.69" cy="1569.67" r="512"/><path class="cls-2" d="M1691.83,1386.43a119.73,119.73,0,0,1,146.5-116.59,72,72,0,1,0,89.71,89.71,119.63,119.63,0,1,1-236.21,26.88Z"/><path class="cls-2" d="M1528.07,1789.43A119.73,119.73,0,0,1,1381.57,1906a72,72,0,1,0-89.71-89.71,119.63,119.63,0,1,1,236.21-26.88Z"/><rect class="cls-2" x="1375.48" y="1536.8" width="489.05" height="82.15" transform="translate(3881.24 1548.08) rotate(135)"/></g><g id="Layer_4" data-name="Layer 4"><circle class="cls-3" cx="514.88" cy="1588" r="512"/><path class="cls-2" d="M754.88,1413h-480a60.18,60.18,0,0,0-60,60v230a60.18,60.18,0,0,0,60,60h480a60.18,60.18,0,0,0,60-60V1473A60.18,60.18,0,0,0,754.88,1413ZM481.19,1515.63h27v45h-27ZM389.88,1638.5a12,12,0,0,1-12,12h-101a12,12,0,0,1-12-12v-101a12,12,0,0,1,12-12h101a12,12,0,0,1,12,12Zm118.31,22.25h-27v-45h27Zm.19-50.25h-27v-45h27Zm39.9,49.88h-27v-45h27Zm.2-50.25h-27v-45h27Zm0-49.5h-27v-45h27Zm216.4,77.62a12,12,0,0,1-12,12h-101a12,12,0,0,1-12-12v-101a12,12,0,0,1,12-12h101a12,12,0,0,1,12,12Z"/><path class="cls-2" d="M359.79,1557.44v62.36a5.41,5.41,0,0,1-8.11,4.68l-54-31.18a5.4,5.4,0,0,1,0-9.36l54-31.18A5.41,5.41,0,0,1,359.79,1557.44Z"/><path class="cls-2" d="M670,1619.8v-62.36a5.41,5.41,0,0,1,8.11-4.68l54,31.18a5.4,5.4,0,0,1,0,9.36l-54,31.18A5.41,5.41,0,0,1,670,1619.8Z"/><path class="cls-2" d="M500.69,1638.25a6,6,0,1,1-6-6A6,6,0,0,1,500.69,1638.25Z"/><path class="cls-2" d="M541,1588a6,6,0,1,1-6-6A6,6,0,0,1,541,1588Z"/><path class="cls-2" d="M500.88,1541a6,6,0,1,1-6-6A6,6,0,0,1,500.88,1541Z"/></g><g id="Layer_3" data-name="Layer 3"><circle class="cls-4" cx="2758.31" cy="512" r="512"/><rect class="cls-5" x="2593.18" y="382.94" width="86" height="567.44" rx="43" ry="43" transform="translate(-54.45 1059.57) rotate(-22.5)"/><rect class="cls-5" x="2618.5" y="298.82" width="172" height="343.03" rx="86" ry="86" transform="translate(25.88 1070.77) rotate(-22.5)"/><line class="cls-6" x1="2794.15" y1="334.88" x2="2952.89" y2="165.41"/><line class="cls-6" x1="2868.29" y1="498.55" x2="3100.38" y2="490.97"/><line class="cls-6" x1="2831.88" y1="418.18" x2="3055.96" y2="316.67"/></g><g id="Layer_2" data-name="Layer 2"><polygon class="cls-7" points="1964.07 873 1292.1 873 1425.38 390.65 1803.43 390.65 1964.07 873"/><polygon class="cls-2" points="1540.17 513.22 1679.43 496.11 1719.35 712 1578.51 728.48 1540.17 513.22"/><path class="cls-5" d="M1678.61,497.21l39.56,213.92-138.85,16.25-38-213.29,137.28-16.87m1.62-2.21L1539,512.36l38.69,217.22,142.84-16.71L1680.24,495Z"/><path class="cls-8" d="M1620,0c-282.77,0-512,229.23-512,512s229.23,512,512,512,512-229.23,512-512S1902.77,0,1620,0Zm169.44,785.08-258.25,35.78a34.87,34.87,0,0,1-39.33-29.76L1420.8,278.25a34.88,34.88,0,0,1,29.76-39.33l258.25-35.78a34.87,34.87,0,0,1,39.33,29.76l71.06,512.85A34.88,34.88,0,0,1,1789.44,785.08Z"/><polygon class="cls-4" points="1291.71 165.48 1401.23 213.83 1490.13 113.72 1433.79 231.32 1541.89 312.13 1412.65 263.29 1343.48 363.89 1383.81 246.35 1291.71 165.48"/><polygon class="cls-8" points="1846.69 396.98 1420.47 396.98 1420.47 231.66 1846.69 160.73 1846.69 396.98"/><rect class="cls-9" x="1604.87" y="789.11" width="111.73" height="4.67" rx="2.33" ry="2.33" transform="translate(-89.55 224.93) rotate(-7.55)"/><path d="M1846.36,781.48l-81.79-590.35a34.87,34.87,0,0,0-39.33-29.76L1423.4,203.19a34.88,34.88,0,0,0-29.76,39.33l81.79,590.35a34.87,34.87,0,0,0,39.33,29.76l301.84-41.82A34.88,34.88,0,0,0,1846.36,781.48Zm-56.92,3.6-258.25,35.78a34.87,34.87,0,0,1-39.33-29.76L1420.8,278.25a34.88,34.88,0,0,1,29.76-39.33l258.25-35.78a34.87,34.87,0,0,1,39.33,29.76l71.06,512.85A34.88,34.88,0,0,1,1789.44,785.08Z"/><line class="cls-10" x1="1626.62" y1="703.54" x2="1648.86" y2="700.63"/><line class="cls-10" x1="1674.05" y1="704.56" x2="1696.29" y2="701.65"/><line class="cls-10" x1="1598.71" y1="714.4" x2="1620.95" y2="711.5"/><line class="cls-10" x1="1628.04" y1="710.57" x2="1669.35" y2="705.17"/><line class="cls-10" x1="1597.35" y1="707.36" x2="1619.59" y2="704.46"/><line class="cls-10" x1="1655.03" y1="699.83" x2="1696.35" y2="694.43"/><line class="cls-10" x1="1672.19" y1="690.28" x2="1694.43" y2="687.37"/><line class="cls-10" x1="1642.92" y1="694.1" x2="1665.16" y2="691.2"/><line class="cls-10" x1="1596.13" y1="700.22" x2="1637.44" y2="694.82"/><line class="cls-10" x1="1621.69" y1="675.07" x2="1643.93" y2="672.17"/><line class="cls-10" x1="1669.12" y1="676.09" x2="1691.36" y2="673.19"/><line class="cls-10" x1="1593.77" y1="685.94" x2="1616.01" y2="683.03"/><line class="cls-10" x1="1623.1" y1="682.11" x2="1664.42" y2="676.71"/><line class="cls-10" x1="1592.42" y1="678.9" x2="1614.66" y2="675.99"/><line class="cls-10" x1="1650.1" y1="671.36" x2="1691.41" y2="665.96"/><line class="cls-10" x1="1667.25" y1="661.82" x2="1689.49" y2="658.91"/><line class="cls-10" x1="1637.99" y1="665.64" x2="1660.23" y2="662.73"/><line class="cls-10" x1="1591.19" y1="671.75" x2="1632.5" y2="666.36"/><line class="cls-11" x1="1587.52" y1="664.94" x2="1664.93" y2="654.83"/><line class="cls-10" x1="1611.57" y1="634.21" x2="1633.81" y2="631.31"/><line class="cls-10" x1="1659" y1="635.23" x2="1681.24" y2="632.33"/><line class="cls-10" x1="1583.66" y1="645.08" x2="1605.9" y2="642.17"/><line class="cls-10" x1="1612.99" y1="641.25" x2="1654.3" y2="635.85"/><line class="cls-10" x1="1582.3" y1="638.04" x2="1604.54" y2="635.13"/><line class="cls-10" x1="1639.98" y1="630.5" x2="1681.3" y2="625.11"/><line class="cls-10" x1="1657.14" y1="620.96" x2="1679.38" y2="618.05"/><line class="cls-10" x1="1627.87" y1="624.78" x2="1650.11" y2="621.87"/><line class="cls-10" x1="1581.08" y1="630.89" x2="1622.39" y2="625.5"/><line class="cls-10" x1="1606.64" y1="605.75" x2="1628.88" y2="602.84"/><line class="cls-10" x1="1654.07" y1="606.77" x2="1676.31" y2="603.87"/><line class="cls-10" x1="1578.72" y1="616.61" x2="1600.96" y2="613.71"/><line class="cls-10" x1="1608.05" y1="612.78" x2="1649.37" y2="607.38"/><line class="cls-10" x1="1577.37" y1="609.57" x2="1599.61" y2="606.67"/><line class="cls-10" x1="1635.05" y1="602.04" x2="1676.36" y2="596.64"/><line class="cls-10" x1="1652.2" y1="592.49" x2="1674.44" y2="589.59"/><line class="cls-10" x1="1622.93" y1="596.32" x2="1645.17" y2="593.41"/><line class="cls-10" x1="1576.14" y1="602.43" x2="1617.45" y2="597.03"/><line class="cls-11" x1="1572.47" y1="595.62" x2="1649.88" y2="585.51"/><line class="cls-10" x1="1596.73" y1="565.01" x2="1618.97" y2="562.11"/><line class="cls-10" x1="1644.16" y1="566.03" x2="1666.4" y2="563.13"/><line class="cls-10" x1="1568.82" y1="575.87" x2="1591.06" y2="572.97"/><line class="cls-10" x1="1598.15" y1="572.04" x2="1639.46" y2="566.65"/><line class="cls-10" x1="1567.46" y1="568.83" x2="1589.7" y2="565.93"/><line class="cls-10" x1="1625.14" y1="561.3" x2="1666.46" y2="555.9"/><line class="cls-10" x1="1642.3" y1="551.75" x2="1664.54" y2="548.85"/><line class="cls-10" x1="1613.03" y1="555.58" x2="1635.27" y2="552.67"/><line class="cls-10" x1="1566.24" y1="561.69" x2="1607.55" y2="556.29"/><line class="cls-10" x1="1591.8" y1="536.55" x2="1614.04" y2="533.64"/><line class="cls-10" x1="1639.23" y1="537.57" x2="1661.47" y2="534.66"/><line class="cls-10" x1="1563.88" y1="547.41" x2="1586.12" y2="544.5"/><line class="cls-10" x1="1593.21" y1="543.58" x2="1634.53" y2="538.18"/><line class="cls-10" x1="1562.53" y1="540.37" x2="1584.77" y2="537.46"/><line class="cls-10" x1="1620.21" y1="532.84" x2="1661.52" y2="527.44"/><line class="cls-10" x1="1637.36" y1="523.29" x2="1659.6" y2="520.38"/><line class="cls-10" x1="1608.1" y1="527.11" x2="1630.34" y2="524.21"/><line class="cls-10" x1="1561.3" y1="533.23" x2="1602.62" y2="527.83"/><line class="cls-11" x1="1557.63" y1="526.42" x2="1635.04" y2="516.3"/><line class="cls-12" x1="1729.26" y1="719.89" x2="1720.53" y2="679.41"/><line class="cls-12" x1="1691.75" y1="725.29" x2="1732.39" y2="720.41"/><line class="cls-12" x1="1684.36" y1="486.2" x2="1692.67" y2="525.67"/><line class="cls-12" x1="1687.29" y1="488.09" x2="1646.74" y2="493.7"/><line class="cls-12" x1="1531.16" y1="508.42" x2="1571.75" y2="503.11"/><line class="cls-12" x1="1573.39" y1="739.35" x2="1613.98" y2="734.04"/><line class="cls-12" x1="1532.98" y1="505.45" x2="1539.48" y2="545.87"/><line class="cls-12" x1="1566.5" y1="702.08" x2="1573" y2="742.5"/></g><g id="Layer_1" data-name="Layer 1"><circle class="cls-5" cx="512" cy="512" r="512"/><rect class="cls-13" width="1024" height="1024"/><path class="cls-14" d="M697.38,262.87H415.18A117.06,117.06,0,0,1,423,305.15H655.1a63.94,63.94,0,0,1,63.75,63.75V655.1a63.94,63.94,0,0,1-63.75,63.75H368.9a63.94,63.94,0,0,1-63.75-63.75V422.77a117.28,117.28,0,0,1-42.28-7.93V697.38a63.94,63.94,0,0,0,63.75,63.75H697.38a63.94,63.94,0,0,0,63.75-63.75V326.62A63.94,63.94,0,0,0,697.38,262.87Z"/><path class="cls-14" d="M586,469V662h75V469Zm66,185H593V478h59Z"/><circle class="cls-15" cx="529.03" cy="624.98" r="14.15"/><circle class="cls-15" cx="529.03" cy="565.66" r="14.15"/><circle class="cls-15" cx="623.13" cy="565.66" r="14.15"/><circle class="cls-15" cx="529.03" cy="565.66" r="14.15"/><circle class="cls-15" cx="529.03" cy="506.33" r="14.15"/><path class="cls-14" d="M491,469V662h75V469Zm66,185H501V478h56Z"/><path class="cls-14" d="M305.4,219.65a85.5,85.5,0,1,0,85.5,85.5A85.5,85.5,0,0,0,305.4,219.65Z"/><path class="cls-14" d="M305.15,154.4A150.75,150.75,0,1,0,455.9,305.15,150.76,150.76,0,0,0,305.15,154.4Zm.25,268.37A117.62,117.62,0,1,1,423,305.15,117.62,117.62,0,0,1,305.4,422.77Z"/></g></svg>